<svg width="763" height="763" viewBox="0 0 763 763" fill="none" xmlns="http://www.w3.org/2000/svg">
<g filter="url(#filter0_i_45_38)">
<circle cx="381.5" cy="381.5" r="306.5" stroke="#FFBABA" stroke-opacity="0.25" stroke-width="150"/>
</g>
<circle cx="381" cy="387" r="236" fill="#97ECFF"/>
<path d="M422.787 215.461C424.019 212.255 426.065 210.006 428.413 209.094C430.805 208.294 433.496 208.717 435.878 210.407C437.7 211.655 439.524 212.887 441.35 214.102C443.165 215.289 444.981 216.467 446.796 217.635C448.611 218.794 450.421 219.948 452.227 221.098C454.037 222.252 455.844 223.404 457.65 224.553C459.446 225.713 461.24 226.879 463.032 228.052C464.819 229.231 466.602 230.419 468.38 231.616C470.158 232.832 471.933 234.058 473.702 235.293C475.468 236.543 477.226 237.804 478.978 239.078C480.73 240.361 482.477 241.658 484.221 242.969C485.959 244.286 487.696 245.614 489.43 246.954C491.156 248.313 492.877 249.676 494.593 251.045C496.31 252.432 498.02 253.827 499.723 255.229C501.416 256.641 503.106 258.062 504.791 259.493C506.457 260.943 508.119 262.397 509.776 263.857C511.42 265.341 513.052 266.832 514.672 268.33C516.279 269.843 517.876 271.365 519.464 272.897C521.5 274.906 522.34 277.765 522.051 280.75C521.775 283.706 520.42 286.766 518.088 289.198C517.78 289.522 517.469 289.847 517.156 290.176C514.88 292.579 512.048 293.913 509.28 294.135C506.52 294.35 503.79 293.475 501.726 291.48C500.124 289.963 498.515 288.448 496.899 286.935C495.269 285.437 493.635 283.949 491.996 282.47C490.348 281 488.693 279.538 487.031 278.083C485.356 276.643 483.683 275.21 482.012 273.783C480.328 272.372 478.646 270.967 476.967 269.569C475.288 268.19 473.607 266.818 471.924 265.453C470.25 264.107 468.582 262.77 466.918 261.443C465.265 260.144 463.617 258.853 461.973 257.573C460.349 256.32 458.735 255.085 457.131 253.87C455.546 252.672 453.976 251.493 452.42 250.333C450.875 249.201 449.344 248.082 447.827 246.978C446.32 245.901 444.823 244.834 443.336 243.776C441.854 242.731 440.377 241.701 438.905 240.685C437.433 239.678 435.961 238.676 434.49 237.679C433.014 236.696 431.531 235.72 430.041 234.752C428.542 233.793 427.032 232.841 425.509 231.897C423.486 230.687 422.11 228.478 421.501 225.826C420.856 223.111 421.061 219.866 422.295 216.746C422.459 216.313 422.623 215.884 422.787 215.461Z" fill="white"/>
<path d="M436.413 238.255C438.064 235.726 440.384 233.958 442.848 233.185C445.363 232.445 448.014 232.707 450.164 234.162C451.804 235.282 453.443 236.408 455.083 237.538C456.733 238.686 458.383 239.844 460.033 241.012C461.693 242.198 463.353 243.393 465.014 244.598C466.68 245.827 468.35 247.064 470.026 248.311C471.702 249.577 473.379 250.852 475.055 252.137C476.737 253.445 478.419 254.763 480.101 256.09C481.784 257.436 483.465 258.789 485.143 260.149C486.817 261.523 488.489 262.91 490.159 264.308C491.824 265.71 493.485 267.123 495.141 268.545C496.788 269.986 498.429 271.429 500.062 272.876C501.687 274.35 503.304 275.827 504.915 277.307C506.511 278.801 508.099 280.3 509.677 281.804C511.246 283.327 512.803 284.853 514.349 286.381C515.881 287.924 517.406 289.469 518.924 291.017C520.418 292.58 521.904 294.143 523.379 295.706C524.832 297.283 526.273 298.859 527.702 300.433C529.555 302.503 530.288 305.343 530.018 308.249C529.763 311.141 528.575 314.098 526.509 316.439C526.234 316.748 525.958 317.061 525.683 317.379C523.702 319.718 521.201 321.009 518.716 321.196C516.216 321.384 513.69 320.454 511.73 318.379C510.217 316.798 508.695 315.215 507.167 313.63C505.63 312.054 504.085 310.476 502.534 308.896C500.968 307.33 499.398 305.765 497.823 304.2C496.234 302.639 494.639 301.091 493.036 299.554C491.415 298.028 489.785 296.506 488.145 294.99C486.492 293.497 484.832 292.011 483.165 290.533C481.484 289.069 479.801 287.613 478.115 286.163C476.421 284.723 474.722 283.288 473.018 281.858C471.32 280.442 469.617 279.03 467.909 277.624C466.211 276.226 464.513 274.838 462.815 273.46C461.132 272.095 459.454 270.74 457.78 269.394C456.122 268.071 454.48 266.764 452.855 265.473C451.254 264.215 449.681 262.982 448.133 261.774C446.634 260.613 445.159 259.479 443.708 258.373C442.315 257.312 440.94 256.277 439.581 255.268C438.265 254.29 436.96 253.327 435.664 252.377C433.979 251.159 433.216 249.147 433.281 246.818C433.273 244.449 434.071 241.742 435.744 239.262C435.967 238.921 436.19 238.586 436.413 238.255Z" fill="white"/>
<path d="M528.28 340.092C529.964 337.76 532.644 337.441 534.139 339.321C535.088 340.529 536.022 341.728 536.942 342.918C537.843 344.108 538.739 345.294 539.63 346.475C540.503 347.656 541.373 348.84 542.241 350.026C543.095 351.208 543.948 352.395 544.802 353.586C545.647 354.778 546.493 355.976 547.343 357.182C548.188 358.402 549.029 359.631 549.865 360.87C550.706 362.123 551.545 363.392 552.382 364.678C553.22 365.993 554.054 367.331 554.884 368.692C556.153 370.869 555.423 373.751 553.316 374.976C551.259 376.192 548.608 375.683 547.39 373.859C546.604 372.713 545.815 371.575 545.024 370.443C544.237 369.326 543.449 368.215 542.659 367.112C541.869 366.018 541.078 364.924 540.288 363.83C539.494 362.751 538.699 361.671 537.905 360.592C537.101 359.512 536.299 358.435 535.5 357.361C534.691 356.286 533.88 355.209 533.067 354.13C532.244 353.051 531.419 351.97 530.591 350.886C529.744 349.794 528.883 348.697 528.008 347.596C526.608 345.847 526.654 342.451 528.28 340.092Z" fill="white"/>
<path d="M410.17 238.469C410.964 235.896 413.352 234.594 415.386 235.635C417.383 236.737 419.336 237.857 421.245 238.995C423.093 240.158 424.923 241.335 426.734 242.527C428.522 243.733 430.308 244.952 432.091 246.182C433.876 247.441 435.665 248.713 437.46 250C439.283 251.323 441.131 252.675 443.003 254.054C444.929 255.493 446.891 256.976 448.889 258.503C450.965 260.103 453.076 261.743 455.225 263.422C457.426 265.161 459.645 266.925 461.88 268.715C464.066 270.48 464.044 273.678 461.803 275.811C459.584 277.923 455.932 278.131 453.674 276.297C451.361 274.424 449.065 272.572 446.786 270.74C444.579 268.978 442.437 267.278 440.361 265.639C438.487 264.185 436.697 262.806 434.992 261.503C433.383 260.292 431.801 259.107 430.245 257.947C428.709 256.814 427.18 255.688 425.658 254.57C424.137 253.47 422.616 252.375 421.095 251.284C419.56 250.208 418.021 249.133 416.477 248.057C414.9 246.996 413.302 245.938 411.682 244.883C410.059 243.861 409.375 240.999 410.17 238.469Z" fill="white"/>
<path d="M491.749 232.766C494.096 230.071 497.215 228.32 500.334 227.686C503.459 227.059 506.59 227.571 508.961 229.36C510.574 230.585 512.186 231.812 513.795 233.042C515.4 234.277 517.007 235.513 518.616 236.753C520.212 237.997 521.807 239.246 523.403 240.499C524.985 241.758 526.559 243.029 528.127 244.311C529.672 245.609 531.203 246.925 532.721 248.261C534.197 249.631 535.654 251.024 537.094 252.442C538.496 253.889 539.887 255.348 541.266 256.819C542.636 258.3 543.999 259.788 545.355 261.283C546.702 262.788 548.045 264.293 549.382 265.798C550.715 267.308 552.049 268.818 553.382 270.327C554.701 271.842 556.015 273.357 557.325 274.873C558.629 276.393 559.927 277.915 561.218 279.44C562.495 280.961 563.763 282.486 565.021 284.017C566.236 285.553 567.429 287.09 568.597 288.627C569.696 290.181 570.742 291.74 571.737 293.305C572.614 294.887 573.443 296.478 574.221 298.076C575.254 300.428 575.038 303.51 573.937 306.564C572.899 309.581 571.047 312.554 568.582 314.777C567.604 315.668 566.631 316.559 565.662 317.45C563.296 319.643 560.669 320.718 558.278 320.719C555.874 320.734 553.677 319.691 552.239 317.547C551.233 316.09 550.212 314.634 549.178 313.178C548.12 311.728 547.045 310.275 545.954 308.821C544.839 307.372 543.708 305.926 542.56 304.482C541.394 303.039 540.216 301.594 539.026 300.146C537.808 298.709 536.58 297.272 535.343 295.835C534.083 294.404 532.815 292.975 531.541 291.548C530.243 290.127 528.936 288.706 527.619 287.286C526.293 285.875 524.958 284.469 523.613 283.067C522.25 281.676 520.88 280.287 519.502 278.901C518.116 277.525 516.72 276.153 515.315 274.786C513.896 273.434 512.471 272.089 511.038 270.751C509.596 269.423 508.145 268.1 506.685 266.782C505.215 265.483 503.741 264.189 502.262 262.899C500.775 261.619 499.282 260.344 497.785 259.074C496.279 257.823 494.769 256.577 493.253 255.335C491.738 254.103 490.219 252.881 488.695 251.668C486.467 249.904 485.372 247.299 485.403 244.497C485.42 241.681 486.585 238.633 488.912 235.989C489.853 234.914 490.798 233.84 491.749 232.766Z" fill="white"/>
<path d="M570.569 458.822C571.28 459.825 571.783 460.948 572.069 462.127C572.361 463.317 572.47 464.55 572.406 465.771C572.372 466.997 572.165 468.211 571.77 469.34C571.394 470.464 570.832 471.482 570.069 472.345C569.327 473.196 568.579 474.037 567.831 474.878C567.091 475.721 566.356 476.561 565.625 477.406C564.895 478.242 564.166 479.079 563.436 479.916C562.702 480.756 561.981 481.595 561.256 482.429C560.53 483.271 559.804 484.113 559.084 484.944C558.368 485.78 557.642 486.622 556.923 487.453C556.202 488.292 555.478 489.126 554.756 489.952C554.042 490.793 553.31 491.625 552.586 492.459C551.87 493.295 551.14 494.132 550.418 494.957C549.694 495.791 548.953 496.621 548.218 497.447C547.477 498.277 546.732 499.109 545.985 499.928C545.215 500.768 544.434 501.586 543.639 502.405C542.81 503.237 541.966 504.057 541.09 504.868C540.182 505.683 539.26 506.499 538.331 507.313C537.376 508.121 536.42 508.936 535.462 509.738C534.481 510.547 533.508 511.358 532.541 512.167C531.551 512.973 530.578 513.785 529.589 514.591C528.602 515.39 527.619 516.207 526.629 517.014C525.64 517.821 524.639 518.62 523.658 519.429C522.664 520.239 521.658 521.041 520.666 521.843C519.671 522.653 518.677 523.462 517.681 524.259C516.679 525.066 515.689 525.873 514.68 526.67C513.678 527.478 512.679 528.269 511.677 529.077C510.671 529.879 509.662 530.676 508.659 531.47C507.64 532.274 506.631 533.071 505.619 533.863C504.586 534.653 503.563 535.438 502.535 536.226C501.484 536.998 500.431 537.766 499.365 538.513C498.27 539.256 497.16 539.987 496.031 540.694C494.87 541.385 493.701 542.06 492.522 542.741C491.331 543.415 490.131 544.073 488.934 544.736C487.723 545.387 486.518 546.048 485.307 546.699C484.09 547.353 482.871 548.001 481.657 548.647C480.417 549.307 479.05 549.653 477.645 549.702C476.239 549.752 474.797 549.51 473.395 549.003C472.004 548.489 470.659 547.721 469.448 546.715C468.242 545.707 467.166 544.478 466.301 543.052C465.646 541.954 464.994 540.861 464.343 539.768C463.693 538.667 463.05 537.577 462.395 536.479C461.76 535.39 461.133 534.304 460.502 533.213C459.875 532.127 459.248 531.041 458.626 529.951C457.824 528.537 457.308 527.068 457.055 525.621C456.804 524.178 456.821 522.755 457.078 521.436C457.335 520.13 457.829 518.909 458.541 517.875C459.254 516.84 460.191 515.98 461.329 515.358C462.446 514.761 463.552 514.143 464.671 513.525C465.769 512.919 466.866 512.299 467.964 511.679C469.05 511.052 470.136 510.425 471.219 509.793C472.297 509.164 473.372 508.529 474.442 507.898C475.5 507.259 476.561 506.612 477.625 505.97C478.672 505.324 479.722 504.669 480.758 504.015C481.799 503.359 482.827 502.703 483.855 502.047C484.867 501.387 485.889 500.721 486.899 500.047C487.903 499.385 488.908 498.714 489.914 498.043C490.898 497.371 491.882 496.699 492.865 496.014C493.849 495.342 494.822 494.662 495.778 493.978C496.743 493.297 497.71 492.62 498.65 491.932C499.596 491.254 500.541 490.563 501.476 489.878C502.404 489.204 503.33 488.517 504.251 487.819C505.162 487.14 506.067 486.451 506.972 485.763C507.866 485.08 508.758 484.392 509.639 483.71C510.52 483.015 511.387 482.333 512.252 481.647C513.104 480.961 513.96 480.273 514.809 479.582C515.65 478.902 516.488 478.218 517.309 477.528C518.134 476.844 518.945 476.161 519.767 475.472C520.567 474.782 521.36 474.102 522.163 473.417C522.947 472.735 523.726 472.043 524.51 471.362C525.283 470.673 526.046 469.99 526.811 469.299C527.579 468.613 528.331 467.922 529.083 467.232C529.848 466.541 530.591 465.848 531.338 465.161C532.083 464.46 532.84 463.767 533.575 463.072C534.326 462.368 535.067 461.671 535.815 460.962C536.557 460.256 537.305 459.547 538.05 458.833C538.808 458.118 539.566 457.403 540.316 456.686C541.082 455.959 541.856 455.236 542.613 454.507C543.389 453.775 544.173 453.032 544.951 452.291C545.753 451.544 546.545 450.803 547.349 450.048C548.166 449.278 549.196 448.711 550.373 448.336C551.563 447.961 552.899 447.779 554.313 447.78C555.751 447.774 557.244 447.959 558.701 448.358C560.154 448.739 561.534 449.341 562.697 450.18C563.488 450.853 564.246 451.531 564.979 452.224C565.711 452.916 566.415 453.619 567.084 454.334C568.278 455.814 569.441 457.311 570.569 458.822Z" fill="white"/>
<path d="M504.901 484.672C505.744 485.869 506.373 487.162 506.779 488.465C507.191 489.766 507.38 491.091 507.338 492.349C507.307 493.628 507.032 494.833 506.532 495.911C506.027 496.993 505.286 497.941 504.313 498.668C502.996 499.651 501.664 500.621 500.335 501.596C498.982 502.564 497.626 503.527 496.272 504.496C494.897 505.449 493.519 506.411 492.127 507.36C490.724 508.316 489.316 509.261 487.901 510.195C486.468 511.133 485.037 512.063 483.582 512.987C482.126 513.91 480.653 514.816 479.184 515.727C477.692 516.623 476.189 517.525 474.683 518.409C473.166 519.298 471.646 520.169 470.107 521.044C468.567 521.918 467.011 522.775 465.46 523.629C463.887 524.482 462.315 525.334 460.736 526.177C459.157 527.019 457.562 527.856 455.964 528.689C454.35 529.517 452.738 530.337 451.125 531.157C449.495 531.981 447.858 532.794 446.228 533.597C444.578 534.411 442.922 535.215 441.262 536.013C439.595 536.81 437.928 537.606 436.249 538.395C434.557 539.185 432.865 539.975 431.161 540.744C429.897 541.328 428.541 541.57 427.175 541.521C425.812 541.476 424.45 541.133 423.163 540.525C421.879 539.921 420.685 539.066 419.647 537.975C418.608 536.884 417.739 535.583 417.093 534.092C416.614 532.962 416.14 531.83 415.666 530.697C415.192 529.564 414.718 528.431 414.244 527.298C413.787 526.169 413.332 525.046 412.878 523.922C412.423 522.799 411.974 521.673 411.519 520.549C410.945 519.086 410.646 517.596 410.605 516.157C410.553 514.711 410.758 513.325 411.187 512.065C411.599 510.809 412.234 509.666 413.065 508.729C413.885 507.785 414.902 507.038 416.086 506.556C417.664 505.894 419.243 505.232 420.832 504.564C422.4 503.894 423.956 503.217 425.523 502.535C427.071 501.856 428.624 501.174 430.169 500.476C431.711 499.787 433.244 499.082 434.782 498.374C436.302 497.669 437.829 496.954 439.341 496.248C440.848 495.523 442.364 494.8 443.866 494.064C445.36 493.34 446.856 492.595 448.339 491.85C449.829 491.107 451.308 490.343 452.773 489.58C454.238 488.818 455.697 488.045 457.161 487.255C458.605 486.469 460.053 485.675 461.502 484.873C462.932 484.062 464.348 483.251 465.772 482.429C467.185 481.599 468.59 480.767 470.005 479.93C471.387 479.083 472.774 478.234 474.158 477.379C475.529 476.525 476.889 475.664 478.243 474.792C479.591 473.923 480.921 473.059 482.257 472.191C483.57 471.321 484.87 470.453 486.176 469.582C487.126 468.936 488.15 468.573 489.2 468.459C490.234 468.354 491.294 468.497 492.327 468.871C493.352 469.242 494.349 469.852 495.266 470.66C496.191 471.47 497.045 472.481 497.767 473.685C498.325 474.603 498.893 475.515 499.465 476.433C500.036 477.35 500.621 478.267 501.205 479.183C501.809 480.096 502.42 481.011 503.037 481.923C503.656 482.84 504.281 483.755 504.901 484.672Z" fill="white"/>
<path d="M488.863 471.751C489.53 472.967 489.99 474.267 490.228 475.557C490.489 476.861 490.532 478.16 490.383 479.389C490.215 480.623 489.85 481.79 489.285 482.816C488.715 483.845 487.929 484.728 486.941 485.381C485.931 486.055 484.917 486.724 483.898 487.395C482.871 488.064 481.84 488.728 480.81 489.392C479.78 490.056 478.734 490.716 477.689 491.368C476.629 492.028 475.566 492.683 474.517 493.338C473.443 493.986 472.369 494.633 471.297 495.273C470.216 495.911 469.131 496.551 468.046 497.192C466.954 497.822 465.858 498.455 464.747 499.075C463.645 499.698 462.529 500.321 461.415 500.937C460.306 501.549 459.179 502.165 458.054 502.773C456.924 503.384 455.798 503.978 454.657 504.582C453.524 505.188 452.374 505.776 451.226 506.369C450.074 506.965 448.924 507.553 447.77 508.135C446.603 508.719 445.447 509.297 444.274 509.87C443.105 510.448 441.93 511.029 440.754 511.597C439.57 512.163 438.389 512.734 437.207 513.292C436.015 513.855 434.812 514.411 433.617 514.97C432.414 515.526 431.215 516.079 430.006 516.625C428.803 517.181 427.583 517.733 426.371 518.273C425.148 518.82 423.93 519.35 422.699 519.894C421.478 520.433 420.239 520.975 419.002 521.509C417.76 522.046 416.526 522.571 415.28 523.103C414.03 523.638 412.774 524.162 411.526 524.689C410.27 525.227 409.016 525.743 407.746 526.268C406.477 526.793 405.212 527.316 403.942 527.841C402.668 528.369 401.395 528.889 400.12 529.417C398.847 529.937 397.556 530.461 396.278 530.984C394.995 531.51 393.699 532.037 392.407 532.56C391.125 533.1 389.831 533.632 388.545 534.153C387.244 534.696 385.954 535.233 384.664 535.77C383.374 536.321 382.089 536.868 380.8 537.419C379.516 537.98 378.237 538.538 376.965 539.106C375.704 539.682 374.454 540.265 373.207 540.853C371.992 541.451 370.739 541.668 369.507 541.562C368.271 541.451 367.042 540.99 365.863 540.208C364.659 539.407 363.478 538.273 362.404 536.856C361.283 535.431 360.288 533.733 359.525 531.846C358.97 530.489 358.44 529.139 357.916 527.799C357.392 526.46 356.879 525.127 356.386 523.805C355.765 522.022 355.566 520.321 355.728 518.752C355.929 517.229 356.433 515.809 357.178 514.568C357.916 513.325 358.869 512.24 359.972 511.389C361.057 510.52 362.293 509.889 363.652 509.542C365.012 509.186 366.356 508.826 367.691 508.45C369.008 508.078 370.321 507.7 371.629 507.313C372.913 506.932 374.193 506.546 375.476 506.152C376.749 505.763 378.01 505.368 379.274 504.964C380.525 504.574 381.78 504.168 383.022 503.763C384.267 503.363 385.506 502.952 386.748 502.547C387.968 502.141 389.202 501.733 390.435 501.312C391.658 500.911 392.873 500.494 394.095 500.079C395.306 499.657 396.518 499.235 397.734 498.809C398.935 498.393 400.138 497.969 401.344 497.536C402.552 497.109 403.738 496.667 404.927 496.23C406.124 495.795 407.31 495.353 408.49 494.9C409.668 494.456 410.84 494.001 412.003 493.544C413.167 493.087 414.333 492.622 415.507 492.159C416.664 491.691 417.814 491.222 418.968 490.749C420.106 490.272 421.253 489.797 422.401 489.315C423.542 488.829 424.682 488.344 425.827 487.856C426.951 487.366 428.092 486.881 429.218 486.384C430.347 485.891 431.479 485.39 432.608 484.898C433.729 484.403 434.857 483.897 435.969 483.387C437.087 482.887 438.204 482.373 439.324 481.865C440.435 481.341 441.544 480.826 442.65 480.305C443.756 479.784 444.865 479.256 445.97 478.721C447.07 478.19 448.177 477.648 449.271 477.106C450.37 476.562 451.46 476.002 452.551 475.442C453.635 474.871 454.727 474.303 455.813 473.711C456.886 473.133 457.971 472.541 459.051 471.938C460.119 471.328 461.19 470.71 462.257 470.087C463.316 469.462 464.381 468.833 465.437 468.189C466.5 467.547 467.548 466.901 468.608 466.254C469.653 465.602 470.686 464.943 471.738 464.281C472.769 463.63 473.801 462.958 474.831 462.294C475.841 461.642 476.912 461.266 477.977 461.143C479.046 461.025 480.106 461.168 481.112 461.543C482.122 461.923 483.078 462.535 483.925 463.356C484.771 464.184 485.521 465.22 486.128 466.45C487.019 468.222 487.929 469.99 488.863 471.751Z" fill="white"/>
<path d="M506.464 434.572C507.087 435.543 507.612 436.536 508.021 437.498C508.424 438.471 508.691 439.426 508.819 440.308C508.94 441.201 508.904 442.04 508.711 442.761C508.51 443.494 508.146 444.099 507.623 444.525C506.739 445.251 505.829 445.977 504.894 446.711C503.921 447.474 502.91 448.244 501.864 449.036C500.776 449.864 499.64 450.693 498.476 451.546C497.266 452.425 496.024 453.322 494.75 454.224C493.429 455.153 492.082 456.097 490.723 457.055C489.318 458.018 487.901 458.996 486.459 459.967C484.999 460.955 483.524 461.952 482.029 462.94C480.527 463.939 479.012 464.938 477.48 465.934C475.935 466.93 474.384 467.929 472.822 468.907C471.25 469.905 469.668 470.874 468.081 471.845C466.483 472.81 464.884 473.76 463.274 474.704C461.644 475.638 460.019 476.555 458.387 477.463C456.758 478.362 455.104 479.24 453.457 480.108C451.797 480.977 450.129 481.822 448.467 482.663C446.786 483.496 445.104 484.314 443.418 485.128C441.725 485.939 440.036 486.734 438.331 487.525C437.306 488.006 436.205 488.212 435.106 488.181C434.007 488.15 432.91 487.869 431.889 487.385C430.853 486.888 429.894 486.187 429.062 485.309C428.229 484.419 427.526 483.369 427.018 482.152C426.505 480.952 426.237 479.72 426.171 478.525C426.116 477.338 426.261 476.173 426.606 475.114C426.938 474.057 427.469 473.105 428.16 472.298C428.86 471.506 429.727 470.859 430.745 470.438C432.411 469.747 434.081 469.039 435.754 468.336C437.422 467.636 439.092 466.929 440.759 466.216C442.426 465.502 444.09 464.784 445.75 464.047C447.412 463.289 449.062 462.51 450.715 461.701C452.356 460.823 454.005 459.898 455.63 458.932C457.261 457.929 458.883 456.909 460.509 455.873C462.121 454.825 463.746 453.775 465.352 452.716C466.969 451.665 468.583 450.608 470.189 449.549C471.795 448.491 473.396 447.435 474.999 446.371C476.592 445.313 478.193 444.257 479.782 443.193C481.362 442.15 482.939 441.101 484.516 440.051C486.072 439.014 487.607 437.976 489.139 436.946C490.631 435.953 492.08 434.971 493.496 434.015C494.754 433.157 495.879 432.369 496.895 431.657C497.645 431.107 498.313 430.596 498.899 430.147C499.407 429.743 499.9 429.347 500.366 428.967C500.635 428.736 500.995 428.736 501.397 428.94C501.817 429.127 502.31 429.501 502.836 430.029C503.382 430.531 503.984 431.189 504.595 431.958C505.218 432.714 505.862 433.59 506.464 434.572Z" fill="white"/>
<path d="M190.151 462.793C188.086 463.161 186.12 462.929 184.597 462.246C183.087 461.559 182.026 460.421 181.783 458.992C181.55 457.649 181.319 456.304 181.09 454.958C180.862 453.611 180.635 452.261 180.41 450.907C180.186 449.55 179.965 448.191 179.749 446.83C179.532 445.454 179.322 444.07 179.118 442.677C178.927 441.258 178.742 439.825 178.563 438.377C178.397 436.904 178.234 435.424 178.076 433.937C177.922 432.439 177.771 430.939 177.621 429.437C177.475 427.932 177.33 426.424 177.184 424.916C177.038 423.407 176.895 421.896 176.753 420.383C176.612 418.871 176.473 417.356 176.335 415.84C176.198 414.32 176.063 412.8 175.93 411.281C175.801 409.757 175.674 408.234 175.549 406.71C175.433 405.18 175.322 403.644 175.218 402.102C175.135 400.55 175.067 398.985 175.012 397.407C174.996 395.808 174.996 394.198 175.012 392.577C175.05 390.942 175.096 389.301 175.15 387.655C175.208 386.005 175.27 384.352 175.337 382.695C175.408 381.038 175.48 379.377 175.555 377.713C175.63 376.049 175.707 374.383 175.786 372.715C175.869 371.044 175.955 369.371 176.042 367.696C176.134 366.017 176.227 364.333 176.323 362.643C176.427 360.947 176.537 359.241 176.654 357.526C176.783 355.786 176.926 354.025 177.084 352.241C177.288 350.389 177.521 348.49 177.783 346.545C178.095 344.512 178.426 342.451 178.775 340.361C179.146 338.238 179.524 336.103 179.911 333.955C180.302 331.8 180.695 329.639 181.09 327.473C181.49 325.304 181.891 323.132 182.295 320.959C182.694 318.786 183.096 316.609 183.499 314.429C183.898 312.252 184.298 310.075 184.697 307.898C185.097 305.721 185.492 303.546 185.883 301.373C186.27 299.203 186.65 297.039 187.025 294.881C187.418 292.606 188.398 290.814 189.633 289.807C190.831 288.87 192.291 288.718 193.777 289.514C195.041 290.197 196.318 290.882 197.608 291.572C198.927 292.269 200.264 292.965 201.62 293.662C203.255 294.491 204.691 296.028 205.664 297.837C206.631 299.651 207.118 301.725 206.9 303.636C206.683 305.441 206.459 307.246 206.226 309.051C205.984 310.856 205.737 312.66 205.483 314.461C205.225 316.262 204.963 318.064 204.697 319.865C204.435 321.663 204.171 323.459 203.904 325.253C203.642 327.047 203.382 328.838 203.124 330.625C202.87 332.404 202.621 334.182 202.375 335.958C202.142 337.724 201.914 339.485 201.689 341.243C201.477 342.987 201.269 344.727 201.065 346.463C200.882 348.185 200.703 349.902 200.528 351.613C200.37 353.31 200.221 354.999 200.079 356.682C199.946 358.357 199.823 360.024 199.711 361.685C199.607 363.335 199.511 364.979 199.424 366.618C199.349 368.25 199.28 369.874 199.218 371.491C199.164 373.105 199.118 374.713 199.081 376.316C199.056 377.908 199.035 379.497 199.018 381.081C199.014 382.659 199.016 384.231 199.024 385.798C199.049 387.357 199.079 388.911 199.112 390.46C199.158 392.002 199.21 393.538 199.268 395.068C199.339 396.588 199.416 398.104 199.499 399.617C199.594 401.119 199.694 402.617 199.798 404.111C199.915 405.599 200.035 407.082 200.16 408.562C200.297 410.032 200.437 411.499 200.578 412.965C200.732 414.42 200.888 415.873 201.046 417.324C201.213 418.771 201.383 420.214 201.558 421.65C201.737 423.083 201.92 424.513 202.107 425.939C202.298 427.361 202.494 428.78 202.694 430.195C202.898 431.603 203.103 433.007 203.311 434.408C203.528 435.805 203.746 437.198 203.967 438.588C204.191 439.971 204.418 441.35 204.647 442.725C204.88 444.094 205.117 445.458 205.358 446.819C205.599 448.176 205.845 449.53 206.095 450.88C206.344 452.22 206.598 453.557 206.856 454.893C207.13 456.301 206.569 457.681 205.433 458.786C204.291 459.891 202.575 460.73 200.541 461.044C198.819 461.322 197.094 461.606 195.368 461.894C193.629 462.19 191.89 462.49 190.151 462.793Z" fill="white"/>
<path d="M213.271 480.955C211.305 481.204 209.377 480.944 207.842 480.311C206.294 479.688 205.152 478.675 204.79 477.414C204.458 476.208 204.129 474.997 203.804 473.78C203.492 472.546 203.185 471.304 202.881 470.055C202.59 468.791 202.301 467.52 202.014 466.243C201.739 464.957 201.464 463.665 201.19 462.365C200.928 461.059 200.666 459.746 200.404 458.429C200.15 457.104 199.898 455.775 199.648 454.443C199.403 453.104 199.16 451.761 198.918 450.415C198.681 449.061 198.448 447.702 198.22 446.337C197.991 444.969 197.766 443.595 197.546 442.216C197.329 440.826 197.115 439.435 196.903 438.041C196.699 436.637 196.497 435.227 196.298 433.812C196.106 432.39 195.917 430.964 195.73 429.534C195.547 428.098 195.368 426.657 195.193 425.213C195.022 423.762 194.856 422.307 194.694 420.849C194.536 419.387 194.38 417.921 194.226 416.452C194.084 414.975 193.945 413.497 193.808 412.017C193.679 410.53 193.554 409.039 193.433 407.544C193.321 406.043 193.215 404.537 193.115 403.028C193.024 401.508 192.94 399.985 192.865 398.458C192.803 396.92 192.747 395.377 192.697 393.828C192.66 392.272 192.628 390.711 192.603 389.144C192.591 387.567 192.587 385.986 192.591 384.401C192.603 382.805 192.622 381.206 192.647 379.603C192.685 377.993 192.726 376.378 192.772 374.757C192.83 373.125 192.895 371.49 192.965 369.851C193.044 368.201 193.132 366.544 193.227 364.88C193.331 363.208 193.444 361.528 193.564 359.838C193.697 358.135 193.839 356.42 193.989 354.694C194.155 352.954 194.328 351.203 194.507 349.442C194.706 347.658 194.914 345.864 195.131 344.059C195.364 342.236 195.603 340.404 195.848 338.563C196.106 336.708 196.368 334.845 196.635 332.975C196.928 330.982 197.907 329.303 199.243 328.237C200.56 327.202 202.232 326.791 203.935 327.23C205.362 327.612 206.785 328 208.204 328.394C209.61 328.798 211.012 329.206 212.41 329.618C214.051 330.11 215.417 331.231 216.316 332.623C217.208 333.993 217.633 335.634 217.383 337.263C217.162 338.798 216.946 340.336 216.734 341.877C216.534 343.422 216.343 344.971 216.16 346.523C215.985 348.075 215.819 349.631 215.661 351.191C215.515 352.754 215.378 354.319 215.249 355.885C215.132 357.452 215.024 359.021 214.924 360.591C214.841 362.161 214.764 363.732 214.693 365.302C214.635 366.869 214.583 368.436 214.537 370.002C214.508 371.565 214.485 373.127 214.469 374.686C214.465 376.239 214.467 377.789 214.475 379.338C214.496 380.876 214.525 382.41 214.562 383.94C214.608 385.464 214.662 386.98 214.725 388.489C214.8 389.991 214.881 391.485 214.968 392.973C215.072 394.449 215.182 395.92 215.299 397.386C215.424 398.841 215.557 400.29 215.698 401.734C215.848 403.164 216.006 404.59 216.172 406.012C216.343 407.423 216.52 408.831 216.703 410.236C216.894 411.633 217.092 413.026 217.296 414.416C217.504 415.802 217.714 417.185 217.926 418.564C218.15 419.943 218.377 421.318 218.606 422.69C218.839 424.062 219.074 425.432 219.311 426.8C219.557 428.168 219.804 429.536 220.054 430.904C220.303 432.273 220.557 433.641 220.815 435.009C221.077 436.377 221.339 437.744 221.601 439.108C221.868 440.476 222.136 441.845 222.406 443.213C222.681 444.577 222.955 445.94 223.23 447.301C223.505 448.658 223.783 450.014 224.066 451.368C224.345 452.718 224.626 454.064 224.909 455.407C225.191 456.746 225.474 458.079 225.757 459.403C226.044 460.725 226.329 462.039 226.612 463.346C226.899 464.642 227.184 465.932 227.467 467.217C227.746 468.492 228.027 469.759 228.309 471.019C228.588 472.264 228.865 473.504 229.139 474.739C229.426 476.033 228.896 477.251 227.804 478.172C226.718 479.098 225.077 479.747 223.143 479.91C221.499 480.062 219.856 480.22 218.213 480.386C216.57 480.567 214.922 480.756 213.271 480.955Z" fill="white"/>
<path d="M229.782 507.894C228.378 508.057 227.049 507.629 225.976 506.784C224.846 505.918 223.991 504.727 223.742 503.438C223.567 502.572 223.392 501.711 223.217 500.855C223.039 500.007 222.858 499.164 222.675 498.326C222.492 497.489 222.304 496.653 222.113 495.819C221.913 494.989 221.714 494.157 221.514 493.323C221.31 492.489 221.104 491.655 220.896 490.821C220.684 489.984 220.472 489.146 220.26 488.309C220.043 487.464 219.825 486.619 219.604 485.774C219.384 484.922 219.163 484.069 218.943 483.213C218.722 482.354 218.5 481.493 218.275 480.63C218.055 479.76 217.834 478.886 217.614 478.009C217.389 477.128 217.169 476.244 216.952 475.356C216.732 474.461 216.513 473.562 216.297 472.659C216.081 471.753 215.865 470.842 215.648 469.925C215.436 469.004 215.224 468.082 215.012 467.158C214.804 466.223 214.596 465.286 214.388 464.347C214.184 463.405 213.98 462.459 213.776 461.51C213.576 460.553 213.377 459.597 213.177 458.64C212.977 457.672 212.78 456.705 212.584 455.738C212.389 454.763 212.195 453.788 212.004 452.813C211.813 451.832 211.623 450.848 211.436 449.862C211.249 448.877 211.062 447.888 210.874 446.895C210.696 445.902 210.515 444.908 210.332 443.911C210.153 442.908 209.976 441.906 209.801 440.906C209.626 439.899 209.454 438.892 209.283 437.884C209.113 436.87 208.944 435.857 208.778 434.847C208.616 433.829 208.453 432.811 208.291 431.793C208.133 430.771 207.977 429.747 207.823 428.722C207.673 427.697 207.524 426.668 207.374 425.636C207.228 424.603 207.083 423.571 206.937 422.538C206.8 421.499 206.662 420.459 206.525 419.419C206.392 418.376 206.263 417.331 206.138 416.284C206.013 415.234 205.891 414.181 205.77 413.127C205.602 411.6 206.207 410.149 207.311 409.06C208.41 407.977 209.988 407.257 211.792 407.171C213.78 407.088 215.754 407.017 217.714 406.959C219.64 406.927 221.553 406.907 223.455 406.9C225.327 406.922 227.186 406.954 229.033 406.997C230.86 407.062 232.673 407.138 234.475 407.225C236.078 407.317 237.663 407.934 238.936 408.849C240.222 409.743 241.208 410.923 241.57 412.196C241.823 413.073 242.077 413.95 242.331 414.827C242.585 415.701 242.841 416.576 243.098 417.454C243.352 418.331 243.608 419.206 243.866 420.08C244.124 420.957 244.38 421.836 244.634 422.717C244.896 423.598 245.156 424.481 245.414 425.365C245.672 426.257 245.929 427.152 246.187 428.051C246.449 428.964 246.709 429.89 246.967 430.829C247.229 431.793 247.492 432.773 247.754 433.769C248.016 434.794 248.276 435.828 248.534 436.872C248.796 437.926 249.058 438.985 249.32 440.05C249.582 441.123 249.844 442.195 250.106 443.267C250.368 444.343 250.63 445.42 250.892 446.5C251.155 447.575 251.419 448.653 251.685 449.732C251.947 450.808 252.209 451.886 252.471 452.965C252.733 454.041 252.995 455.117 253.257 456.192C253.52 457.265 253.78 458.337 254.037 459.409C254.3 460.477 254.56 461.544 254.817 462.609C255.075 463.67 255.333 464.728 255.591 465.782C255.845 466.829 256.097 467.869 256.346 468.901C256.588 469.912 256.825 470.908 257.058 471.89C257.274 472.833 257.484 473.751 257.688 474.647C257.879 475.495 258.064 476.329 258.243 477.148C258.41 477.939 258.576 478.724 258.742 479.504C258.905 480.273 259.065 481.04 259.223 481.805C259.377 482.563 259.531 483.32 259.685 484.074C259.839 484.829 259.991 485.581 260.14 486.332C260.29 487.083 260.438 487.836 260.583 488.59C260.729 489.341 260.872 490.094 261.014 490.848C261.155 491.603 261.295 492.357 261.432 493.112C261.569 493.87 261.702 494.63 261.831 495.391C261.96 496.157 262.087 496.924 262.212 497.693C262.328 498.469 262.443 499.247 262.555 500.027C262.705 501.174 261.944 502.371 260.565 503.416C259.142 504.521 257.108 505.463 254.855 505.913C252.371 506.371 249.929 506.77 247.529 507.109C245.249 507.29 243.026 507.405 240.858 507.456C238.799 507.452 236.802 507.461 234.868 507.483C233.1 507.584 231.405 507.721 229.782 507.894Z" fill="white"/>
<path d="M456.5 163C383.5 139 331.5 156.5 321 158.5C310.5 160.5 312.612 168.11 312 176.5C309.995 203.993 355.396 167.974 382.5 173C409.577 178.021 421 206 447 201.5C473 197 514.334 182.014 456.5 163Z" fill="#6AAB7C"/>
<defs>
<filter id="filter0_i_45_38" x="0" y="0" width="763" height="767" filterUnits="userSpaceOnUse" color-interpolation-filters="sRGB">
<feFlood flood-opacity="0" result="BackgroundImageFix"/>
<feBlend mode="normal" in="SourceGraphic" in2="BackgroundImageFix" result="shape"/>
<feColorMatrix in="SourceAlpha" type="matrix" values="0 0 0 0 0 0 0 0 0 0 0 0 0 0 0 0 0 0 127 0" result="hardAlpha"/>
<feOffset dy="4"/>
<feGaussianBlur stdDeviation="3.5"/>
<feComposite in2="hardAlpha" operator="arithmetic" k2="-1" k3="1"/>
<feColorMatrix type="matrix" values="0 0 0 0 0 0 0 0 0 0 0 0 0 0 0 0 0 0 1 0"/>
<feBlend mode="normal" in2="shape" result="effect1_innerShadow_45_38"/>
</filter>
</defs>
</svg>
