<svg width="1130" height="1096" viewBox="0 0 1130 1096" fill="none" xmlns="http://www.w3.org/2000/svg">
<rect width="1130" height="1096" fill="#010000"/>
<g filter="url(#filter0_i_45_38)">
<circle cx="516.5" cy="458.5" r="306.5" stroke="url(#paint0_radial_45_38)" stroke-opacity="0.25" stroke-width="150"/>
</g>
<circle cx="516" cy="464" r="236" fill="#97ECFF"/>
<path d="M557.787 292.461C559.019 289.255 561.065 287.006 563.413 286.094C565.805 285.294 568.496 285.717 570.878 287.407C572.7 288.655 574.524 289.887 576.35 291.102C578.165 292.289 579.981 293.467 581.796 294.635C583.611 295.794 585.421 296.948 587.227 298.098C589.037 299.252 590.844 300.404 592.65 301.553C594.446 302.713 596.24 303.879 598.032 305.052C599.819 306.231 601.602 307.419 603.38 308.616C605.158 309.832 606.933 311.058 608.702 312.293C610.468 313.543 612.226 314.804 613.978 316.078C615.73 317.361 617.477 318.658 619.221 319.969C620.959 321.286 622.696 322.614 624.43 323.954C626.156 325.313 627.877 326.676 629.593 328.045C631.31 329.432 633.02 330.827 634.723 332.229C636.416 333.641 638.106 335.062 639.791 336.493C641.457 337.943 643.119 339.397 644.776 340.857C646.42 342.341 648.052 343.832 649.672 345.33C651.279 346.843 652.876 348.365 654.464 349.897C656.5 351.906 657.34 354.765 657.051 357.75C656.775 360.706 655.42 363.766 653.088 366.198C652.78 366.522 652.469 366.847 652.156 367.176C649.88 369.579 647.048 370.913 644.28 371.135C641.52 371.35 638.79 370.475 636.726 368.48C635.124 366.963 633.515 365.448 631.899 363.935C630.269 362.437 628.635 360.949 626.996 359.47C625.348 358 623.693 356.538 622.031 355.083C620.356 353.643 618.683 352.21 617.012 350.783C615.328 349.372 613.646 347.967 611.967 346.569C610.288 345.19 608.607 343.818 606.924 342.453C605.25 341.107 603.582 339.77 601.918 338.443C600.265 337.144 598.617 335.853 596.973 334.573C595.349 333.32 593.735 332.085 592.131 330.87C590.546 329.672 588.976 328.493 587.42 327.333C585.875 326.201 584.344 325.082 582.827 323.978C581.32 322.901 579.823 321.834 578.336 320.776C576.854 319.731 575.377 318.701 573.905 317.685C572.433 316.678 570.961 315.676 569.49 314.679C568.014 313.696 566.531 312.72 565.041 311.752C563.542 310.793 562.032 309.841 560.509 308.897C558.486 307.687 557.11 305.478 556.501 302.826C555.856 300.111 556.061 296.866 557.295 293.746C557.459 293.313 557.623 292.884 557.787 292.461Z" fill="white"/>
<path d="M571.413 315.255C573.064 312.726 575.384 310.958 577.848 310.185C580.363 309.445 583.014 309.707 585.164 311.162C586.804 312.282 588.443 313.408 590.083 314.538C591.733 315.686 593.383 316.844 595.033 318.012C596.693 319.198 598.353 320.393 600.014 321.598C601.68 322.827 603.35 324.064 605.026 325.311C606.702 326.577 608.379 327.852 610.055 329.137C611.737 330.445 613.419 331.763 615.101 333.09C616.784 334.436 618.465 335.789 620.143 337.149C621.817 338.523 623.489 339.91 625.159 341.308C626.824 342.71 628.485 344.123 630.141 345.545C631.788 346.986 633.429 348.429 635.062 349.876C636.687 351.35 638.304 352.827 639.915 354.307C641.511 355.801 643.099 357.3 644.677 358.804C646.246 360.327 647.803 361.853 649.349 363.381C650.881 364.924 652.406 366.469 653.924 368.017C655.418 369.58 656.904 371.143 658.379 372.706C659.832 374.283 661.273 375.859 662.702 377.433C664.555 379.503 665.288 382.343 665.018 385.249C664.763 388.141 663.575 391.098 661.509 393.439C661.234 393.748 660.958 394.061 660.683 394.379C658.702 396.718 656.201 398.009 653.716 398.196C651.216 398.384 648.69 397.454 646.73 395.379C645.217 393.798 643.695 392.215 642.167 390.63C640.63 389.054 639.085 387.476 637.534 385.896C635.968 384.33 634.398 382.765 632.823 381.2C631.234 379.639 629.639 378.091 628.036 376.554C626.415 375.028 624.785 373.506 623.145 371.99C621.492 370.497 619.832 369.011 618.165 367.533C616.484 366.069 614.801 364.613 613.115 363.163C611.421 361.723 609.722 360.288 608.018 358.858C606.32 357.442 604.617 356.03 602.909 354.624C601.211 353.226 599.513 351.838 597.815 350.46C596.132 349.095 594.454 347.74 592.78 346.394C591.122 345.071 589.48 343.764 587.855 342.473C586.254 341.215 584.681 339.982 583.133 338.774C581.634 337.613 580.159 336.479 578.708 335.373C577.316 334.312 575.94 333.277 574.581 332.268C573.265 331.29 571.96 330.327 570.664 329.377C568.979 328.159 568.216 326.147 568.281 323.818C568.273 321.449 569.071 318.742 570.744 316.262C570.967 315.921 571.19 315.586 571.413 315.255Z" fill="white"/>
<path d="M663.28 417.092C664.964 414.76 667.644 414.441 669.139 416.321C670.088 417.529 671.022 418.728 671.942 419.918C672.843 421.108 673.739 422.294 674.63 423.475C675.503 424.656 676.373 425.84 677.241 427.026C678.095 428.208 678.948 429.395 679.802 430.586C680.647 431.778 681.493 432.976 682.343 434.182C683.188 435.402 684.029 436.631 684.865 437.87C685.706 439.123 686.545 440.392 687.382 441.678C688.22 442.993 689.054 444.331 689.884 445.692C691.153 447.869 690.423 450.751 688.316 451.976C686.259 453.192 683.608 452.683 682.39 450.859C681.604 449.713 680.815 448.575 680.024 447.443C679.237 446.326 678.449 445.215 677.659 444.112C676.869 443.018 676.078 441.924 675.288 440.83C674.494 439.751 673.699 438.671 672.905 437.592C672.101 436.512 671.299 435.435 670.5 434.361C669.691 433.286 668.88 432.209 668.067 431.13C667.244 430.051 666.419 428.97 665.591 427.886C664.744 426.794 663.883 425.697 663.008 424.596C661.608 422.847 661.654 419.451 663.28 417.092Z" fill="white"/>
<path d="M545.17 315.469C545.964 312.896 548.352 311.594 550.386 312.635C552.383 313.737 554.336 314.857 556.245 315.995C558.093 317.158 559.923 318.335 561.734 319.527C563.522 320.733 565.308 321.952 567.091 323.182C568.876 324.441 570.665 325.713 572.46 327C574.283 328.323 576.131 329.675 578.003 331.054C579.929 332.493 581.891 333.976 583.889 335.503C585.965 337.103 588.076 338.743 590.225 340.422C592.426 342.161 594.645 343.925 596.88 345.715C599.066 347.48 599.044 350.678 596.803 352.811C594.584 354.923 590.932 355.131 588.674 353.297C586.361 351.424 584.065 349.572 581.786 347.74C579.579 345.978 577.437 344.278 575.361 342.639C573.487 341.185 571.697 339.806 569.992 338.503C568.383 337.292 566.801 336.107 565.245 334.947C563.709 333.814 562.18 332.688 560.658 331.57C559.137 330.47 557.616 329.375 556.095 328.284C554.56 327.208 553.021 326.133 551.477 325.057C549.9 323.996 548.302 322.938 546.682 321.883C545.059 320.861 544.375 317.999 545.17 315.469Z" fill="white"/>
<path d="M626.749 309.766C629.096 307.071 632.215 305.32 635.334 304.686C638.459 304.059 641.59 304.571 643.961 306.36C645.574 307.585 647.186 308.812 648.795 310.042C650.4 311.277 652.007 312.513 653.616 313.753C655.212 314.997 656.807 316.246 658.403 317.499C659.985 318.758 661.559 320.029 663.127 321.311C664.672 322.609 666.203 323.925 667.721 325.261C669.197 326.631 670.654 328.024 672.094 329.442C673.496 330.889 674.887 332.348 676.266 333.819C677.636 335.3 678.999 336.788 680.355 338.283C681.702 339.788 683.045 341.293 684.382 342.798C685.715 344.308 687.049 345.818 688.382 347.327C689.701 348.842 691.015 350.357 692.325 351.873C693.629 353.393 694.927 354.915 696.218 356.44C697.495 357.961 698.763 359.486 700.021 361.017C701.236 362.553 702.429 364.09 703.597 365.627C704.696 367.181 705.742 368.74 706.737 370.305C707.614 371.887 708.443 373.478 709.221 375.076C710.254 377.428 710.038 380.51 708.937 383.564C707.899 386.581 706.047 389.554 703.582 391.777C702.604 392.668 701.631 393.559 700.662 394.45C698.296 396.643 695.669 397.718 693.278 397.719C690.874 397.734 688.677 396.691 687.239 394.547C686.233 393.09 685.212 391.634 684.178 390.178C683.12 388.728 682.045 387.275 680.954 385.821C679.839 384.372 678.708 382.926 677.56 381.482C676.394 380.039 675.216 378.594 674.026 377.146C672.808 375.709 671.58 374.272 670.343 372.835C669.083 371.404 667.815 369.975 666.541 368.548C665.243 367.127 663.936 365.706 662.619 364.286C661.293 362.875 659.958 361.469 658.613 360.067C657.25 358.676 655.88 357.287 654.502 355.901C653.116 354.525 651.72 353.153 650.315 351.786C648.896 350.434 647.471 349.089 646.038 347.751C644.596 346.423 643.145 345.1 641.685 343.782C640.215 342.483 638.741 341.189 637.262 339.899C635.775 338.619 634.282 337.344 632.785 336.074C631.279 334.823 629.769 333.577 628.253 332.335C626.738 331.103 625.219 329.881 623.695 328.668C621.467 326.904 620.372 324.299 620.403 321.497C620.42 318.681 621.585 315.633 623.912 312.989C624.853 311.914 625.798 310.84 626.749 309.766Z" fill="white"/>
<path d="M705.569 535.822C706.28 536.825 706.783 537.948 707.069 539.127C707.361 540.317 707.47 541.55 707.406 542.771C707.372 543.997 707.165 545.211 706.77 546.34C706.394 547.464 705.832 548.482 705.069 549.345C704.327 550.196 703.579 551.037 702.831 551.878C702.091 552.721 701.356 553.561 700.625 554.406C699.895 555.242 699.166 556.079 698.436 556.916C697.702 557.756 696.981 558.595 696.256 559.429C695.53 560.271 694.804 561.113 694.084 561.944C693.368 562.78 692.642 563.622 691.923 564.453C691.202 565.292 690.478 566.126 689.756 566.952C689.042 567.793 688.31 568.625 687.586 569.459C686.87 570.295 686.14 571.132 685.418 571.957C684.694 572.791 683.953 573.621 683.218 574.447C682.477 575.277 681.732 576.109 680.985 576.928C680.215 577.768 679.434 578.586 678.639 579.405C677.81 580.237 676.966 581.057 676.09 581.868C675.182 582.683 674.26 583.499 673.331 584.313C672.376 585.121 671.42 585.936 670.462 586.738C669.481 587.547 668.508 588.358 667.541 589.167C666.551 589.973 665.578 590.785 664.589 591.591C663.602 592.39 662.619 593.207 661.629 594.014C660.64 594.821 659.639 595.62 658.658 596.429C657.664 597.239 656.658 598.041 655.666 598.843C654.671 599.653 653.677 600.462 652.681 601.259C651.679 602.066 650.689 602.873 649.68 603.67C648.678 604.478 647.679 605.269 646.677 606.077C645.671 606.879 644.662 607.676 643.659 608.47C642.64 609.274 641.631 610.071 640.619 610.863C639.586 611.653 638.563 612.438 637.535 613.226C636.484 613.998 635.431 614.766 634.365 615.513C633.27 616.256 632.16 616.987 631.031 617.694C629.87 618.385 628.701 619.06 627.522 619.741C626.331 620.415 625.131 621.073 623.934 621.736C622.723 622.387 621.518 623.048 620.307 623.699C619.09 624.353 617.871 625.001 616.657 625.647C615.417 626.307 614.05 626.653 612.645 626.702C611.239 626.752 609.797 626.51 608.395 626.003C607.004 625.489 605.659 624.721 604.448 623.715C603.242 622.707 602.166 621.478 601.301 620.052C600.646 618.954 599.994 617.861 599.343 616.768C598.693 615.667 598.05 614.577 597.395 613.479C596.76 612.39 596.133 611.304 595.502 610.213C594.875 609.127 594.248 608.041 593.626 606.951C592.824 605.537 592.308 604.068 592.055 602.621C591.804 601.178 591.821 599.755 592.078 598.436C592.335 597.13 592.829 595.909 593.541 594.875C594.254 593.84 595.191 592.98 596.329 592.358C597.446 591.761 598.552 591.143 599.671 590.525C600.769 589.919 601.866 589.299 602.964 588.679C604.05 588.052 605.136 587.425 606.219 586.793C607.297 586.164 608.372 585.529 609.442 584.898C610.5 584.259 611.561 583.612 612.625 582.97C613.672 582.324 614.722 581.669 615.758 581.015C616.799 580.359 617.827 579.703 618.855 579.047C619.867 578.387 620.889 577.721 621.899 577.047C622.903 576.385 623.908 575.714 624.914 575.043C625.898 574.371 626.882 573.699 627.865 573.014C628.849 572.342 629.822 571.662 630.778 570.978C631.743 570.297 632.71 569.62 633.65 568.932C634.596 568.254 635.541 567.563 636.476 566.878C637.404 566.204 638.33 565.517 639.251 564.819C640.162 564.14 641.067 563.451 641.972 562.763C642.866 562.08 643.758 561.392 644.639 560.71C645.52 560.015 646.387 559.333 647.252 558.647C648.104 557.961 648.96 557.273 649.809 556.582C650.65 555.902 651.488 555.218 652.309 554.528C653.134 553.844 653.945 553.161 654.767 552.472C655.567 551.782 656.36 551.102 657.163 550.417C657.947 549.735 658.726 549.043 659.51 548.362C660.283 547.673 661.046 546.99 661.811 546.299C662.579 545.613 663.331 544.922 664.083 544.232C664.848 543.541 665.591 542.848 666.338 542.161C667.083 541.46 667.84 540.767 668.575 540.072C669.326 539.368 670.067 538.671 670.815 537.962C671.557 537.256 672.305 536.547 673.05 535.833C673.808 535.118 674.566 534.403 675.316 533.686C676.082 532.959 676.856 532.236 677.613 531.507C678.389 530.775 679.173 530.032 679.951 529.291C680.753 528.544 681.545 527.803 682.349 527.048C683.166 526.278 684.196 525.711 685.373 525.336C686.563 524.961 687.899 524.779 689.313 524.78C690.751 524.774 692.244 524.959 693.701 525.358C695.154 525.739 696.534 526.341 697.697 527.18C698.488 527.853 699.246 528.531 699.979 529.224C700.711 529.916 701.415 530.619 702.084 531.334C703.278 532.814 704.441 534.311 705.569 535.822Z" fill="white"/>
<path d="M639.901 561.672C640.744 562.869 641.373 564.162 641.779 565.465C642.191 566.766 642.38 568.091 642.338 569.349C642.307 570.628 642.032 571.833 641.532 572.911C641.027 573.993 640.286 574.941 639.313 575.668C637.996 576.651 636.664 577.621 635.335 578.596C633.982 579.564 632.626 580.527 631.272 581.496C629.897 582.449 628.519 583.411 627.127 584.36C625.724 585.316 624.316 586.261 622.901 587.195C621.468 588.133 620.037 589.063 618.582 589.987C617.126 590.91 615.653 591.816 614.184 592.727C612.692 593.623 611.189 594.525 609.683 595.409C608.166 596.298 606.646 597.169 605.107 598.044C603.567 598.918 602.011 599.775 600.46 600.629C598.887 601.482 597.315 602.334 595.736 603.177C594.157 604.019 592.562 604.856 590.964 605.689C589.35 606.517 587.738 607.337 586.125 608.157C584.495 608.981 582.858 609.794 581.228 610.597C579.578 611.411 577.922 612.215 576.262 613.013C574.595 613.81 572.928 614.606 571.249 615.395C569.557 616.185 567.865 616.975 566.161 617.744C564.897 618.328 563.541 618.57 562.175 618.521C560.812 618.476 559.45 618.133 558.163 617.525C556.879 616.921 555.685 616.066 554.647 614.975C553.608 613.884 552.739 612.583 552.093 611.092C551.614 609.962 551.14 608.83 550.666 607.697C550.192 606.564 549.718 605.431 549.244 604.298C548.787 603.169 548.332 602.046 547.878 600.922C547.423 599.799 546.974 598.673 546.519 597.549C545.945 596.086 545.646 594.596 545.605 593.157C545.553 591.711 545.758 590.325 546.187 589.065C546.599 587.809 547.234 586.666 548.065 585.729C548.885 584.785 549.902 584.038 551.086 583.556C552.664 582.894 554.243 582.232 555.832 581.564C557.4 580.894 558.956 580.217 560.523 579.535C562.071 578.856 563.624 578.174 565.169 577.476C566.711 576.787 568.244 576.082 569.782 575.374C571.302 574.669 572.829 573.954 574.341 573.248C575.848 572.523 577.364 571.8 578.866 571.064C580.36 570.34 581.856 569.595 583.339 568.85C584.829 568.107 586.308 567.343 587.773 566.58C589.238 565.818 590.697 565.045 592.161 564.255C593.605 563.469 595.053 562.675 596.502 561.873C597.932 561.062 599.348 560.251 600.772 559.429C602.185 558.599 603.59 557.767 605.005 556.93C606.387 556.083 607.774 555.234 609.158 554.379C610.529 553.525 611.889 552.664 613.243 551.792C614.591 550.923 615.921 550.059 617.257 549.191C618.57 548.321 619.87 547.453 621.176 546.582C622.126 545.936 623.15 545.573 624.2 545.459C625.234 545.354 626.294 545.497 627.327 545.871C628.352 546.242 629.349 546.852 630.266 547.66C631.191 548.47 632.044 549.481 632.767 550.685C633.325 551.603 633.893 552.515 634.465 553.433C635.036 554.35 635.621 555.267 636.205 556.183C636.809 557.096 637.42 558.011 638.037 558.923C638.656 559.84 639.281 560.755 639.901 561.672Z" fill="white"/>
<path d="M623.863 548.751C624.53 549.967 624.99 551.267 625.228 552.557C625.489 553.861 625.532 555.16 625.383 556.389C625.215 557.623 624.85 558.79 624.285 559.816C623.715 560.845 622.929 561.728 621.941 562.381C620.931 563.055 619.917 563.724 618.898 564.395C617.871 565.064 616.84 565.728 615.81 566.392C614.78 567.056 613.734 567.716 612.689 568.368C611.629 569.028 610.566 569.683 609.517 570.338C608.443 570.986 607.369 571.633 606.297 572.273C605.216 572.911 604.131 573.551 603.046 574.192C601.954 574.822 600.858 575.455 599.747 576.075C598.645 576.698 597.529 577.321 596.415 577.937C595.306 578.549 594.179 579.165 593.054 579.773C591.924 580.384 590.798 580.978 589.657 581.582C588.524 582.188 587.374 582.776 586.226 583.369C585.074 583.965 583.924 584.553 582.77 585.135C581.603 585.719 580.447 586.297 579.274 586.87C578.105 587.448 576.93 588.029 575.754 588.597C574.57 589.163 573.389 589.734 572.207 590.292C571.015 590.855 569.812 591.411 568.617 591.97C567.414 592.526 566.215 593.079 565.006 593.625C563.803 594.181 562.583 594.733 561.371 595.273C560.148 595.82 558.93 596.35 557.699 596.894C556.478 597.433 555.239 597.975 554.002 598.509C552.76 599.046 551.526 599.571 550.28 600.103C549.03 600.638 547.774 601.162 546.526 601.689C545.27 602.227 544.016 602.743 542.746 603.268C541.477 603.793 540.212 604.316 538.942 604.841C537.668 605.369 536.395 605.889 535.12 606.417C533.847 606.937 532.556 607.461 531.278 607.984C529.995 608.51 528.699 609.037 527.407 609.56C526.125 610.1 524.831 610.632 523.545 611.153C522.244 611.696 520.954 612.233 519.664 612.77C518.374 613.321 517.089 613.868 515.8 614.419C514.516 614.98 513.237 615.538 511.965 616.106C510.704 616.682 509.454 617.265 508.207 617.853C506.992 618.451 505.739 618.668 504.507 618.562C503.271 618.451 502.042 617.99 500.863 617.208C499.659 616.407 498.478 615.273 497.404 613.856C496.283 612.431 495.288 610.733 494.525 608.846C493.97 607.489 493.44 606.139 492.916 604.799C492.392 603.46 491.879 602.127 491.386 600.805C490.765 599.022 490.566 597.321 490.728 595.752C490.929 594.229 491.433 592.809 492.178 591.568C492.916 590.325 493.869 589.24 494.972 588.389C496.057 587.52 497.293 586.889 498.652 586.542C500.012 586.186 501.356 585.826 502.691 585.45C504.008 585.078 505.321 584.7 506.629 584.313C507.913 583.932 509.193 583.546 510.476 583.152C511.749 582.763 513.01 582.368 514.274 581.964C515.525 581.574 516.78 581.168 518.022 580.763C519.267 580.363 520.506 579.952 521.748 579.547C522.968 579.141 524.202 578.733 525.435 578.312C526.658 577.911 527.873 577.494 529.095 577.079C530.306 576.657 531.518 576.235 532.734 575.809C533.935 575.393 535.138 574.969 536.344 574.536C537.552 574.109 538.738 573.667 539.927 573.23C541.124 572.795 542.31 572.353 543.49 571.9C544.668 571.456 545.84 571.001 547.003 570.544C548.167 570.087 549.333 569.622 550.507 569.159C551.664 568.691 552.814 568.222 553.968 567.749C555.106 567.272 556.253 566.797 557.401 566.315C558.542 565.829 559.682 565.344 560.827 564.856C561.951 564.366 563.092 563.881 564.218 563.384C565.347 562.891 566.479 562.39 567.608 561.898C568.729 561.403 569.857 560.897 570.969 560.387C572.087 559.887 573.204 559.373 574.324 558.865C575.435 558.341 576.544 557.826 577.65 557.305C578.756 556.784 579.865 556.256 580.97 555.721C582.07 555.19 583.177 554.648 584.271 554.106C585.37 553.562 586.46 553.002 587.551 552.442C588.635 551.871 589.727 551.303 590.813 550.711C591.886 550.133 592.971 549.541 594.051 548.938C595.119 548.328 596.19 547.71 597.257 547.087C598.316 546.462 599.381 545.833 600.437 545.189C601.5 544.547 602.548 543.901 603.608 543.254C604.653 542.602 605.686 541.943 606.738 541.281C607.769 540.63 608.801 539.958 609.831 539.294C610.841 538.642 611.912 538.266 612.977 538.143C614.046 538.025 615.106 538.168 616.112 538.543C617.122 538.923 618.078 539.535 618.925 540.356C619.771 541.184 620.521 542.22 621.128 543.45C622.019 545.222 622.929 546.99 623.863 548.751Z" fill="white"/>
<path d="M641.464 511.572C642.087 512.543 642.612 513.536 643.021 514.498C643.424 515.471 643.691 516.426 643.819 517.308C643.94 518.201 643.904 519.04 643.711 519.761C643.51 520.494 643.146 521.099 642.623 521.525C641.739 522.251 640.829 522.977 639.894 523.711C638.921 524.474 637.91 525.244 636.864 526.036C635.776 526.864 634.64 527.693 633.476 528.546C632.266 529.425 631.024 530.322 629.75 531.224C628.429 532.153 627.082 533.097 625.723 534.055C624.318 535.018 622.901 535.996 621.459 536.967C619.999 537.955 618.524 538.952 617.029 539.94C615.527 540.939 614.012 541.938 612.48 542.934C610.935 543.93 609.384 544.929 607.822 545.907C606.25 546.905 604.668 547.874 603.081 548.845C601.483 549.81 599.884 550.76 598.274 551.704C596.644 552.638 595.019 553.555 593.387 554.463C591.758 555.362 590.104 556.24 588.457 557.108C586.797 557.977 585.129 558.822 583.467 559.663C581.786 560.496 580.104 561.314 578.418 562.128C576.725 562.939 575.036 563.734 573.331 564.525C572.306 565.006 571.205 565.212 570.106 565.181C569.007 565.15 567.91 564.869 566.889 564.385C565.853 563.888 564.894 563.187 564.062 562.309C563.229 561.419 562.526 560.369 562.018 559.152C561.505 557.952 561.237 556.72 561.171 555.525C561.116 554.338 561.261 553.173 561.606 552.114C561.938 551.057 562.469 550.105 563.16 549.298C563.86 548.506 564.727 547.859 565.745 547.438C567.411 546.747 569.081 546.039 570.754 545.336C572.422 544.636 574.092 543.929 575.759 543.216C577.426 542.502 579.09 541.784 580.75 541.047C582.412 540.289 584.062 539.51 585.715 538.701C587.356 537.823 589.005 536.898 590.63 535.932C592.261 534.929 593.883 533.909 595.509 532.873C597.121 531.825 598.746 530.775 600.352 529.717C601.969 528.665 603.583 527.608 605.189 526.549C606.795 525.491 608.396 524.435 609.999 523.371C611.592 522.313 613.193 521.257 614.782 520.193C616.362 519.15 617.939 518.101 619.516 517.051C621.072 516.014 622.607 514.976 624.139 513.946C625.631 512.953 627.08 511.971 628.496 511.015C629.754 510.157 630.879 509.369 631.895 508.657C632.645 508.107 633.313 507.596 633.899 507.147C634.407 506.743 634.9 506.347 635.366 505.967C635.635 505.736 635.995 505.736 636.397 505.94C636.817 506.127 637.31 506.501 637.836 507.029C638.382 507.531 638.984 508.189 639.595 508.958C640.218 509.714 640.862 510.59 641.464 511.572Z" fill="white"/>
<path d="M325.151 539.793C323.086 540.161 321.12 539.929 319.597 539.246C318.087 538.559 317.026 537.421 316.783 535.992C316.55 534.649 316.319 533.304 316.09 531.958C315.862 530.611 315.635 529.261 315.41 527.907C315.186 526.55 314.965 525.191 314.749 523.83C314.532 522.454 314.322 521.07 314.118 519.677C313.927 518.258 313.742 516.825 313.563 515.377C313.397 513.904 313.234 512.424 313.076 510.937C312.922 509.439 312.771 507.939 312.621 506.437C312.475 504.932 312.33 503.424 312.184 501.916C312.038 500.407 311.895 498.896 311.753 497.383C311.612 495.871 311.473 494.356 311.335 492.84C311.198 491.32 311.063 489.8 310.93 488.281C310.801 486.757 310.674 485.234 310.549 483.71C310.433 482.18 310.322 480.644 310.218 479.102C310.135 477.55 310.067 475.985 310.012 474.407C309.996 472.808 309.996 471.198 310.012 469.577C310.05 467.942 310.096 466.301 310.15 464.655C310.208 463.005 310.27 461.352 310.337 459.695C310.408 458.038 310.48 456.377 310.555 454.713C310.63 453.049 310.707 451.383 310.786 449.715C310.869 448.044 310.955 446.371 311.042 444.696C311.134 443.017 311.227 441.333 311.323 439.643C311.427 437.947 311.537 436.241 311.654 434.526C311.783 432.786 311.926 431.025 312.084 429.241C312.288 427.389 312.521 425.49 312.783 423.545C313.095 421.512 313.426 419.451 313.775 417.361C314.146 415.238 314.524 413.103 314.911 410.955C315.302 408.8 315.695 406.639 316.09 404.473C316.49 402.304 316.891 400.132 317.295 397.959C317.694 395.786 318.096 393.609 318.499 391.429C318.898 389.252 319.298 387.075 319.697 384.898C320.097 382.721 320.492 380.546 320.883 378.373C321.27 376.203 321.65 374.039 322.025 371.881C322.418 369.606 323.398 367.814 324.633 366.807C325.831 365.87 327.291 365.718 328.777 366.514C330.041 367.197 331.318 367.882 332.608 368.572C333.927 369.269 335.264 369.965 336.62 370.662C338.255 371.491 339.691 373.028 340.664 374.837C341.631 376.651 342.118 378.725 341.9 380.636C341.683 382.441 341.459 384.246 341.226 386.051C340.984 387.856 340.737 389.66 340.483 391.461C340.225 393.262 339.963 395.064 339.697 396.865C339.435 398.663 339.171 400.459 338.904 402.253C338.642 404.047 338.382 405.838 338.124 407.625C337.87 409.404 337.621 411.182 337.375 412.958C337.142 414.724 336.914 416.485 336.689 418.243C336.477 419.987 336.269 421.727 336.065 423.463C335.882 425.185 335.703 426.902 335.528 428.613C335.37 430.31 335.221 431.999 335.079 433.682C334.946 435.357 334.823 437.024 334.711 438.685C334.607 440.335 334.511 441.979 334.424 443.618C334.349 445.25 334.28 446.874 334.218 448.491C334.164 450.105 334.118 451.713 334.081 453.316C334.056 454.908 334.035 456.497 334.018 458.081C334.014 459.659 334.016 461.231 334.024 462.798C334.049 464.357 334.079 465.911 334.112 467.46C334.158 469.002 334.21 470.538 334.268 472.068C334.339 473.588 334.416 475.104 334.499 476.617C334.594 478.119 334.694 479.617 334.798 481.111C334.915 482.599 335.035 484.082 335.16 485.562C335.297 487.032 335.437 488.499 335.578 489.965C335.732 491.42 335.888 492.873 336.046 494.324C336.213 495.771 336.383 497.214 336.558 498.65C336.737 500.083 336.92 501.513 337.107 502.939C337.298 504.361 337.494 505.78 337.694 507.195C337.898 508.603 338.103 510.007 338.311 511.408C338.528 512.805 338.746 514.198 338.967 515.588C339.191 516.971 339.418 518.35 339.647 519.725C339.88 521.094 340.117 522.458 340.358 523.819C340.599 525.176 340.845 526.53 341.095 527.88C341.344 529.22 341.598 530.557 341.856 531.893C342.13 533.301 341.569 534.681 340.433 535.786C339.291 536.891 337.575 537.73 335.541 538.044C333.819 538.322 332.094 538.606 330.368 538.894C328.629 539.19 326.89 539.49 325.151 539.793Z" fill="white"/>
<path d="M348.271 557.955C346.305 558.204 344.377 557.944 342.842 557.311C341.294 556.688 340.152 555.675 339.79 554.414C339.458 553.208 339.129 551.997 338.804 550.78C338.492 549.546 338.185 548.304 337.881 547.055C337.59 545.791 337.301 544.52 337.014 543.243C336.739 541.957 336.464 540.665 336.19 539.365C335.928 538.059 335.666 536.746 335.404 535.429C335.15 534.104 334.898 532.775 334.648 531.443C334.403 530.104 334.16 528.761 333.918 527.415C333.681 526.061 333.448 524.702 333.22 523.337C332.991 521.969 332.766 520.595 332.546 519.216C332.329 517.826 332.115 516.435 331.903 515.041C331.699 513.637 331.497 512.227 331.298 510.812C331.106 509.39 330.917 507.964 330.73 506.534C330.547 505.098 330.368 503.657 330.193 502.213C330.022 500.762 329.856 499.307 329.694 497.849C329.536 496.387 329.38 494.921 329.226 493.452C329.084 491.975 328.945 490.497 328.808 489.017C328.679 487.53 328.554 486.039 328.433 484.544C328.321 483.043 328.215 481.537 328.115 480.028C328.024 478.508 327.94 476.985 327.865 475.458C327.803 473.92 327.747 472.377 327.697 470.828C327.66 469.272 327.628 467.711 327.603 466.144C327.591 464.567 327.587 462.986 327.591 461.401C327.603 459.805 327.622 458.206 327.647 456.603C327.685 454.993 327.726 453.378 327.772 451.757C327.83 450.125 327.895 448.49 327.965 446.851C328.044 445.201 328.132 443.544 328.227 441.88C328.331 440.208 328.444 438.528 328.564 436.838C328.697 435.135 328.839 433.42 328.989 431.694C329.155 429.954 329.328 428.203 329.507 426.442C329.706 424.658 329.914 422.864 330.131 421.059C330.364 419.236 330.603 417.404 330.848 415.563C331.106 413.708 331.368 411.845 331.635 409.975C331.928 407.982 332.907 406.303 334.243 405.237C335.56 404.202 337.232 403.791 338.935 404.23C340.362 404.612 341.785 405 343.204 405.394C344.61 405.798 346.012 406.206 347.41 406.618C349.051 407.11 350.417 408.231 351.316 409.623C352.208 410.993 352.633 412.634 352.383 414.263C352.162 415.798 351.946 417.336 351.734 418.877C351.534 420.422 351.343 421.971 351.16 423.523C350.985 425.075 350.819 426.631 350.661 428.191C350.515 429.754 350.378 431.319 350.249 432.886C350.132 434.452 350.024 436.021 349.924 437.591C349.841 439.161 349.764 440.732 349.693 442.302C349.635 443.869 349.583 445.436 349.537 447.002C349.508 448.565 349.485 450.127 349.469 451.686C349.465 453.239 349.467 454.789 349.475 456.338C349.496 457.876 349.525 459.41 349.562 460.94C349.608 462.464 349.662 463.98 349.725 465.489C349.8 466.991 349.881 468.485 349.968 469.973C350.072 471.449 350.182 472.92 350.299 474.386C350.424 475.841 350.557 477.29 350.698 478.734C350.848 480.164 351.006 481.59 351.172 483.012C351.343 484.423 351.52 485.831 351.703 487.236C351.894 488.633 352.092 490.026 352.296 491.416C352.504 492.802 352.714 494.185 352.926 495.564C353.15 496.943 353.377 498.318 353.606 499.69C353.839 501.062 354.074 502.432 354.311 503.8C354.557 505.168 354.804 506.536 355.054 507.904C355.303 509.273 355.557 510.641 355.815 512.009C356.077 513.377 356.339 514.744 356.601 516.108C356.868 517.476 357.136 518.845 357.406 520.213C357.681 521.577 357.955 522.94 358.23 524.301C358.505 525.658 358.783 527.014 359.066 528.368C359.345 529.718 359.626 531.064 359.909 532.407C360.191 533.746 360.474 535.079 360.757 536.403C361.044 537.725 361.329 539.039 361.612 540.346C361.899 541.642 362.184 542.932 362.467 544.217C362.746 545.492 363.027 546.759 363.309 548.019C363.588 549.264 363.865 550.504 364.139 551.739C364.426 553.033 363.896 554.251 362.804 555.172C361.718 556.098 360.077 556.747 358.143 556.91C356.499 557.062 354.856 557.22 353.213 557.386C351.57 557.567 349.922 557.756 348.271 557.955Z" fill="white"/>
<path d="M364.782 584.894C363.378 585.057 362.049 584.629 360.976 583.784C359.846 582.918 358.991 581.727 358.742 580.438C358.567 579.572 358.392 578.711 358.217 577.855C358.039 577.007 357.858 576.164 357.675 575.326C357.492 574.489 357.304 573.653 357.113 572.819C356.913 571.989 356.714 571.157 356.514 570.323C356.31 569.489 356.104 568.655 355.896 567.821C355.684 566.984 355.472 566.146 355.26 565.309C355.043 564.464 354.825 563.619 354.604 562.774C354.384 561.922 354.163 561.069 353.943 560.213C353.722 559.354 353.5 558.493 353.275 557.63C353.055 556.76 352.834 555.886 352.614 555.009C352.389 554.128 352.169 553.244 351.952 552.356C351.732 551.461 351.513 550.562 351.297 549.659C351.081 548.753 350.865 547.842 350.648 546.925C350.436 546.004 350.224 545.082 350.012 544.158C349.804 543.223 349.596 542.286 349.388 541.347C349.184 540.405 348.98 539.459 348.776 538.51C348.576 537.553 348.377 536.597 348.177 535.64C347.977 534.672 347.78 533.705 347.584 532.738C347.389 531.763 347.195 530.788 347.004 529.813C346.813 528.832 346.623 527.848 346.436 526.862C346.249 525.877 346.062 524.888 345.874 523.895C345.696 522.902 345.515 521.908 345.332 520.911C345.153 519.908 344.976 518.906 344.801 517.906C344.626 516.899 344.454 515.892 344.283 514.884C344.113 513.87 343.944 512.857 343.778 511.847C343.616 510.829 343.453 509.811 343.291 508.793C343.133 507.771 342.977 506.747 342.823 505.722C342.673 504.697 342.524 503.668 342.374 502.636C342.228 501.603 342.083 500.571 341.937 499.538C341.8 498.499 341.662 497.459 341.525 496.419C341.392 495.376 341.263 494.331 341.138 493.284C341.013 492.234 340.891 491.181 340.77 490.127C340.602 488.6 341.207 487.149 342.311 486.06C343.41 484.977 344.988 484.257 346.792 484.171C348.78 484.088 350.754 484.017 352.714 483.959C354.64 483.927 356.553 483.907 358.455 483.9C360.327 483.922 362.186 483.954 364.033 483.997C365.86 484.062 367.673 484.138 369.475 484.225C371.078 484.317 372.663 484.934 373.936 485.849C375.222 486.743 376.208 487.923 376.57 489.196C376.823 490.073 377.077 490.95 377.331 491.827C377.585 492.701 377.841 493.576 378.098 494.454C378.352 495.331 378.608 496.206 378.866 497.08C379.124 497.957 379.38 498.836 379.634 499.717C379.896 500.598 380.156 501.481 380.414 502.365C380.672 503.257 380.929 504.152 381.187 505.051C381.449 505.964 381.709 506.89 381.967 507.829C382.229 508.793 382.492 509.773 382.754 510.769C383.016 511.794 383.276 512.828 383.534 513.872C383.796 514.926 384.058 515.985 384.32 517.05C384.582 518.123 384.844 519.195 385.106 520.267C385.368 521.343 385.63 522.42 385.892 523.5C386.155 524.575 386.419 525.653 386.685 526.732C386.947 527.808 387.209 528.886 387.471 529.965C387.733 531.041 387.995 532.117 388.257 533.192C388.52 534.265 388.78 535.337 389.037 536.409C389.3 537.477 389.56 538.544 389.817 539.609C390.075 540.67 390.333 541.728 390.591 542.782C390.845 543.829 391.097 544.869 391.346 545.901C391.588 546.912 391.825 547.908 392.058 548.89C392.274 549.833 392.484 550.751 392.688 551.647C392.879 552.495 393.064 553.329 393.243 554.148C393.41 554.939 393.576 555.724 393.742 556.504C393.905 557.273 394.065 558.04 394.223 558.805C394.377 559.563 394.531 560.32 394.685 561.074C394.839 561.829 394.991 562.581 395.14 563.332C395.29 564.083 395.438 564.836 395.583 565.59C395.729 566.341 395.872 567.094 396.014 567.848C396.155 568.603 396.295 569.357 396.432 570.112C396.569 570.87 396.702 571.63 396.831 572.391C396.96 573.157 397.087 573.924 397.212 574.693C397.328 575.469 397.443 576.247 397.555 577.027C397.705 578.174 396.944 579.371 395.565 580.416C394.142 581.521 392.108 582.463 389.855 582.913C387.371 583.371 384.929 583.77 382.529 584.109C380.249 584.29 378.026 584.405 375.858 584.456C373.799 584.452 371.802 584.461 369.868 584.483C368.1 584.584 366.405 584.721 364.782 584.894Z" fill="white"/>
<path d="M591.5 240C518.5 216 466.5 233.5 456 235.5C445.5 237.5 447.612 245.11 447 253.5C444.995 280.993 490.396 244.974 517.5 250C544.577 255.021 556 283 582 278.5C608 274 649.334 259.014 591.5 240Z" fill="#6AAB7C"/>
<defs>
<filter id="filter0_i_45_38" x="135" y="77" width="763" height="767" filterUnits="userSpaceOnUse" color-interpolation-filters="sRGB">
<feFlood flood-opacity="0" result="BackgroundImageFix"/>
<feBlend mode="normal" in="SourceGraphic" in2="BackgroundImageFix" result="shape"/>
<feColorMatrix in="SourceAlpha" type="matrix" values="0 0 0 0 0 0 0 0 0 0 0 0 0 0 0 0 0 0 127 0" result="hardAlpha"/>
<feOffset dy="4"/>
<feGaussianBlur stdDeviation="3.5"/>
<feComposite in2="hardAlpha" operator="arithmetic" k2="-1" k3="1"/>
<feColorMatrix type="matrix" values="0 0 0 0 0 0 0 0 0 0 0 0 0 0 0 0 0 0 1 0"/>
<feBlend mode="normal" in2="shape" result="effect1_innerShadow_45_38"/>
</filter>
<radialGradient id="paint0_radial_45_38" cx="0" cy="0" r="1" gradientUnits="userSpaceOnUse" gradientTransform="translate(516.5 458.5) rotate(90.065) scale(440.5)">
<stop offset="0.5625" stop-color="#FFBABA"/>
<stop offset="1" stop-color="#FFBABA" stop-opacity="0"/>
</radialGradient>
</defs>
</svg>
